<?xml version="1.0" encoding="UTF-8"?>
<svg width="288px" height="288px" viewBox="0 0 288 288" version="1.1" xmlns="http://www.w3.org/2000/svg" xmlns:xlink="http://www.w3.org/1999/xlink">
    <!-- Generator: Sketch 47.1 (45422) - http://www.bohemiancoding.com/sketch -->
    <title>bg-about</title>
    <desc>Created with Sketch.</desc>
    <defs>
        <linearGradient x1="49.9998264%" y1="-14.9605556%" x2="49.9998264%" y2="101.11441%" id="linearGradient-1">
            <stop stop-color="#EBEBEB" offset="0%"></stop>
            <stop stop-color="#E1E7ED" offset="17.01%"></stop>
            <stop stop-color="#C5DDF2" offset="46.35%"></stop>
            <stop stop-color="#98CDFB" offset="84.23%"></stop>
            <stop stop-color="#83C6FF" offset="100%"></stop>
        </linearGradient>
    </defs>
    <g id="Page-1" stroke="none" stroke-width="1" fill="none" fill-rule="evenodd">
        <g id="bg-about">
            <rect id="Rectangle-path" fill="url(#linearGradient-1)" opacity="0.456804801" x="0" y="0" width="288" height="288"></rect>
            <g id="Group" opacity="0.6" transform="translate(0.000000, 62.000000)" fill="#192534">
                <path d="M288,11.75 L288,226 L0,226 L0,87.23 L0.11,87.23 C0.85,87.2 1.27,87.48 1.55,88.21 C2.46,90.509 3.56,92.739 4.38,95.069 C4.85,96.38 5.57,96.88 6.88,96.71 C8.54,96.489 9.84,97.13 10.99,98.319 C11.76,99.13 12.62,99.989 13.62,100.419 C16.06,101.46 18,102.98 19.37,105.249 C19.72,105.839 20.18,106.369 20.62,106.89 C20.82,107.119 21.1,107.39 21.37,107.419 C24.19,107.749 25.73,109.499 26.74,111.989 C27.21,113.139 27.93,114.199 28.54,115.299 C28.68,115.549 28.87,115.779 29.1,116.11 C30.37,113.58 31.57,111.2 32.9,108.56 C34.21,114.219 35.46,119.599 36.78,125.249 C38.21,123.219 39.48,121.419 40.77,119.589 C42.12,120.659 43.37,121.659 44.7,122.719 C45.97,119.64 47.17,116.73 48.51,113.49 C49.14,116.131 49.68,118.45 50.26,120.75 C51.16,124.36 51.72,128.12 53.1,131.54 C55.58,137.67 57.37,143.92 58.34,150.45 C58.88,154.08 59.68,157.67 60.42,161.56 C61.65,160.179 62.73,158.999 63.76,157.78 C64.21,157.25 64.62,157.06 65.32,157.33 C66.29,157.711 67.32,157.94 68.37,158.25 C69.73,153.08 71.06,148.03 72.47,142.69 C73.54,145.049 74.48,147.07 75.39,149.099 C75.73,149.87 76.15,150.65 76.3,151.469 C77.09,155.82 77.8,160.179 78.54,164.53 C79.06,167.509 79.59,170.48 80.16,173.75 C81.55,171.881 82.77,170.22 84.1,168.43 C85.43,171.571 86.68,174.5 87.94,177.491 C90.26,176.371 92.69,175.541 92.93,172.462 C92.98,171.751 93.35,171.071 93.56,170.371 C94.47,167.35 95.71,164.371 96.22,161.281 C97.42,153.921 98.42,146.521 99.22,139.111 C99.65,135.151 100.67,131.611 103.45,128.68 C103.77,128.34 103.99,127.861 104.1,127.41 C104.63,125.16 105.1,122.9 105.6,120.65 C106.26,117.679 106.94,114.719 107.6,111.759 L107.87,111.759 C109.09,119.239 110.32,126.73 111.59,134.48 C111.93,133.969 112.14,133.69 112.32,133.39 C113.24,131.82 114.25,130.289 115.06,128.65 C115.63,127.48 116.28,127.27 117.42,127.799 C118.14,128.13 118.95,128.27 119.8,128.52 C121.1,124.63 122.41,120.849 123.61,117.04 C124.07,115.57 124.29,114.04 124.58,112.53 C126.23,104.06 127.75,95.55 131.17,87.55 C131.34,87.17 131.53,86.641 131.86,86.49 C132.93,85.99 134.08,85.62 135.24,85.179 C136.65,88.65 138,91.969 139.41,95.429 C140.72,94.45 141.87,93.48 143.13,92.69 C144.42,91.88 145.82,91.25 147.199,90.53 C148.55,92.45 149.809,94.259 151.189,96.24 C152.21,93.429 153.139,90.9 154.07,88.349 C155.119,85.44 155.119,85.41 158.199,85.57 C158.88,85.599 159.21,85.37 159.51,84.799 C160.21,83.469 161.1,82.23 161.69,80.86 C162.55,78.88 163.94,77.73 166.01,77.19 C166.731,77 167.18,77.02 167.699,77.58 C168.699,78.66 169.779,79.68 170.96,80.87 C171.56,78.62 172.09,76.64 172.619,74.65 C173.859,69.92 174.76,65.05 178.059,61.15 C178.679,60.42 179.24,59.55 180.019,59.04 C182.279,57.56 183.559,55.55 184.169,52.93 C184.629,50.93 185.409,49 186.059,47.04 C186.24,46.49 186.449,45.95 186.639,45.41 C188.99,52.59 191.15,59.75 194.559,66.58 C195.529,66.35 196.529,66.03 197.559,65.89 C197.959,65.84 198.589,66.07 198.82,66.38 C199.869,67.87 200.66,69.57 201.84,70.94 C203.18,72.5 204.83,73.79 206.51,75.34 C206.64,74.83 206.69,74.69 206.72,74.54 C207.93,68.46 209.151,62.38 210.31,56.29 C210.45,55.56 210.741,55.2 211.411,55.08 C213.35,54.72 215.28,54.32 217.241,54.05 C217.981,53.95 218.401,53.8 218.541,52.97 C218.751,51.74 219.101,50.52 219.421,49.31 C220.921,43.73 221.811,38 224.651,32.8 C225.86,30.57 227.11,28.71 229.491,27.71 C229.921,27.53 230.321,26.97 230.481,26.5 C231.63,23.04 232.72,19.56 233.821,16.09 C234.01,15.46 234.27,15.06 235.041,14.99 C237.261,14.82 239.27,13.94 241.161,12.83 C241.61,12.57 242.051,12.15 242.28,11.69 C243.421,9.46 244.491,7.2 245.68,4.74 C245.92,5.31 246.08,5.66 246.21,6.03 C247.3,9.04 248.359,12.06 249.5,15.05 C249.65,15.44 250.119,15.89 250.52,15.98 C252.731,16.47 254.95,16.39 257.13,15.76 C257.47,15.66 257.869,15.3 258.01,14.97 C258.77,13.14 259.46,11.27 260.19,9.43 C260.67,8.2 261.17,6.97 261.68,5.72 C262.67,5.96 263.55,6.1 264.39,6.39 C265.22,6.68 265.7,6.51 266.17,5.74 C267.199,4.03 268.34,2.38 269.529,0.56 C269.689,1.06 269.79,1.33 269.859,1.6 C270.99,5.87 272.109,10.14 273.24,14.4 C273.309,14.67 273.34,15.09 273.51,15.17 C274.81,15.78 276.14,16.32 277.51,16.9 C278.8,11.59 280.04,6.49 281.36,1.08 C282.581,3.91 283.661,6.44 284.76,8.96 C284.901,9.28 285.02,9.69 285.28,9.88 C286.16,10.521 287.07,11.13 288,11.75 Z" id="Shape"></path>
            </g>
            <path d="M35.363,181.172 L46.163,181.172 C46.197,181.089 46.232,181.006 46.266,180.922 L35.305,180.922 C35.324,181.006 35.343,181.089 35.363,181.172 Z M111.563,196.315 L111.702,196.315 C111.762,196.226 111.82,196.14 111.871,196.065 L111.522,196.065 C111.536,196.149 111.549,196.231 111.563,196.315 Z M288,13.929 L288,13.679 L273.242,13.679 L273.242,0 L272.992,0 L272.992,13.678 L257.35,13.678 L257.35,0 L257.1,0 L257.1,13.678 L241.288,13.678 L241.288,0 L241.038,0 L241.038,13.678 L225.396,13.678 L225.396,0 L225.146,0 L225.146,13.678 L209.504,13.678 L209.504,0 L209.254,0 L209.254,13.678 L193.611,13.678 L193.611,0 L193.361,0 L193.361,13.678 L177.72,13.678 L177.72,0 L177.47,0 L177.47,13.678 L161.828,13.678 L161.828,0 L161.578,0 L161.578,13.678 L145.935,13.678 L145.935,0 L145.685,0 L145.685,13.678 L130.044,13.678 L130.044,0 L129.794,0 L129.794,13.678 L114.152,13.678 L114.152,0 L113.902,0 L113.902,13.678 L98.261,13.678 L98.261,0 L98.011,0 L98.011,13.678 L82.37,13.678 L82.37,0 L82.12,0 L82.12,13.678 L66.307,13.678 L66.307,0 L66.057,0 L66.057,13.678 L50.416,13.678 L50.416,0 L50.166,0 L50.166,13.678 L34.523,13.678 L34.523,0 L34.273,0 L34.273,13.678 L18.632,13.678 L18.632,0 L18.382,0 L18.382,13.678 L2.74,13.678 L2.74,0 L2.49,0 L2.49,13.678 L0,13.678 L0,13.928 L2.49,13.928 L2.49,28.895 L0,28.895 L0,29.145 L2.49,29.145 L2.49,44.038 L0,44.038 L0,44.288 L2.49,44.288 L2.49,59.256 L0,59.256 L0,59.506 L2.49,59.506 L2.49,74.473 L0,74.473 L0,74.723 L2.49,74.723 L2.49,89.691 L0,89.691 L0,89.941 L2.49,89.941 L2.49,104.908 L0,104.908 L0,105.158 L2.49,105.158 L2.49,120.051 L0,120.051 L0,120.301 L2.49,120.301 L2.49,135.269 L0,135.269 L0,135.519 L2.49,135.519 L2.49,150.487 L1.665,150.487 C1.699,150.57 1.734,150.653 1.769,150.737 L2.49,150.737 L2.49,152.455 C2.573,152.647 2.657,152.84 2.74,153.032 L2.74,150.737 L18.382,150.737 L18.382,165.704 L18.252,165.704 C18.384,165.857 18.507,166.022 18.632,166.184 L18.632,165.954 L34.273,165.954 L34.273,176.485 C34.356,176.843 34.44,177.203 34.523,177.561 L34.523,165.954 L50.165,165.954 L50.165,180.922 L49.807,180.922 C49.828,181.006 49.848,181.09 49.869,181.172 L50.166,181.172 L50.166,182.37 C50.198,182.496 50.228,182.624 50.26,182.75 C50.314,182.968 50.364,183.187 50.416,183.404 L50.416,181.172 L66.058,181.172 L66.058,196.066 L54.076,196.066 C54.107,196.149 54.135,196.233 54.165,196.316 L66.057,196.316 L66.057,211.283 L58.147,211.283 C58.161,211.367 58.175,211.45 58.189,211.533 L66.058,211.533 L66.058,219.57 C66.141,219.597 66.224,219.627 66.308,219.652 L66.308,211.533 L70.666,211.533 C70.688,211.45 70.71,211.366 70.732,211.283 L66.308,211.283 L66.308,196.316 L82.12,196.316 L82.12,211.283 L75.474,211.283 C75.512,211.366 75.549,211.45 75.588,211.533 L82.12,211.533 L82.12,226.5 L78.536,226.5 C78.537,226.51 78.539,226.521 78.541,226.53 C78.554,226.603 78.567,226.677 78.58,226.75 L82.121,226.75 L82.121,233.104 C82.204,232.991 82.288,232.878 82.371,232.766 L82.371,226.749 L95.385,226.749 C95.41,226.667 95.432,226.583 95.457,226.499 L82.37,226.499 L82.37,211.531 L97.958,211.531 C97.969,211.448 97.979,211.365 97.99,211.281 L82.37,211.281 L82.37,196.314 L98.012,196.314 L98.012,211.112 C98.098,210.464 98.179,209.814 98.262,209.165 L98.262,196.314 L100.189,196.314 C100.216,196.231 100.244,196.147 100.271,196.064 L98.262,196.064 L98.262,181.17 L105.933,181.17 C105.952,181.087 105.971,181.004 105.989,180.92 L98.262,180.92 L98.262,165.952 L113.904,165.952 L113.904,180.92 L109.042,180.92 C109.056,181.004 109.069,181.087 109.083,181.17 L113.904,181.17 L113.904,192.749 C113.988,192.605 114.071,192.463 114.154,192.318 L114.154,181.17 L122.914,181.17 C122.941,181.087 122.969,181.004 122.996,180.92 L114.155,180.92 L114.155,165.952 L126.293,165.952 C126.311,165.869 126.328,165.786 126.345,165.702 L114.155,165.702 L114.155,150.735 L129.797,150.735 L129.797,153.092 C129.881,152.858 129.96,152.621 130.047,152.388 L130.047,150.735 L130.702,150.735 C130.735,150.652 130.767,150.568 130.801,150.485 L130.047,150.485 L130.047,135.52 L145.688,135.52 L145.688,150.488 L136.587,150.488 C136.62,150.571 136.655,150.655 136.689,150.738 L145.689,150.738 L145.689,153.299 C145.773,153.257 145.856,153.215 145.939,153.173 L145.939,150.738 L153.931,150.738 C153.961,150.655 153.993,150.571 154.023,150.488 L145.939,150.488 L145.939,135.52 L161.582,135.52 L161.582,143.091 C161.617,143.014 161.66,142.939 161.693,142.861 C161.736,142.763 161.787,142.676 161.832,142.582 L161.832,135.52 L172.912,135.52 C172.933,135.437 172.955,135.353 172.976,135.27 L161.831,135.27 L161.831,120.302 L177.473,120.302 L177.473,123.936 C177.556,123.825 177.636,123.713 177.723,123.603 L177.723,120.302 L181.004,120.302 C181.101,120.22 181.194,120.136 181.287,120.052 L177.723,120.052 L177.723,105.159 L193.365,105.159 L193.365,120.052 L190.914,120.052 C190.945,120.135 190.975,120.219 191.005,120.302 L193.365,120.302 L193.365,126.057 C193.445,126.233 193.535,126.407 193.615,126.583 L193.615,120.301 L209.258,120.301 L209.258,123.718 C209.342,123.29 209.424,122.862 209.508,122.433 L209.508,120.301 L209.922,120.301 C209.938,120.218 209.955,120.134 209.971,120.051 L209.508,120.051 L209.508,105.158 L220.951,105.158 C220.972,105.075 220.993,104.991 221.013,104.908 L209.507,104.908 L209.507,89.941 L225.149,89.941 L225.149,93.92 C225.23,93.78 225.316,93.646 225.399,93.51 L225.399,89.941 L229.024,89.941 C229.179,89.863 229.328,89.78 229.494,89.71 C229.504,89.706 229.514,89.696 229.523,89.691 L225.399,89.691 L225.399,74.724 L241.041,74.724 L241.041,74.9 C241.082,74.877 241.123,74.855 241.164,74.831 C241.207,74.806 241.248,74.773 241.291,74.745 L241.291,74.724 L241.322,74.724 C241.435,74.649 241.543,74.566 241.648,74.474 L241.291,74.474 L241.291,59.507 L257.1,59.507 L257.1,74.474 L248.548,74.474 C248.578,74.557 248.61,74.641 248.641,74.724 L257.1,74.724 L257.1,77.767 C257.11,77.764 257.12,77.763 257.13,77.76 C257.201,77.739 257.276,77.701 257.35,77.66 L257.35,74.723 L258.905,74.723 C258.938,74.64 258.971,74.556 259.005,74.473 L257.351,74.473 L257.351,59.507 L272.994,59.507 L272.994,74.474 L272.732,74.474 C272.754,74.557 272.777,74.641 272.798,74.724 L272.993,74.724 L272.993,75.461 C273.075,75.774 273.157,76.088 273.241,76.4 C273.241,76.403 273.241,76.406 273.243,76.409 L273.243,74.723 L278.526,74.723 C278.546,74.64 278.566,74.556 278.586,74.473 L273.243,74.473 L273.243,59.507 L288,59.507 L288,59.257 L273.242,59.257 L273.242,44.289 L288,44.289 L288,44.039 L273.242,44.039 L273.242,29.146 L288,29.146 L288,28.896 L273.242,28.896 L273.242,13.929 L288,13.929 Z M18.382,150.487 L2.74,150.487 L2.74,135.52 L18.382,135.52 L18.382,150.487 L18.382,150.487 Z M18.382,135.27 L2.74,135.27 L2.74,120.302 L18.382,120.302 L18.382,135.27 L18.382,135.27 Z M18.382,120.052 L2.74,120.052 L2.74,105.159 L18.382,105.159 L18.382,120.052 L18.382,120.052 Z M18.382,104.909 L2.74,104.909 L2.74,89.941 L18.382,89.941 L18.382,104.909 L18.382,104.909 Z M18.382,89.691 L2.74,89.691 L2.74,74.724 L18.382,74.724 L18.382,89.691 L18.382,89.691 Z M18.382,74.474 L2.74,74.474 L2.74,59.507 L18.382,59.507 L18.382,74.474 L18.382,74.474 Z M18.382,59.257 L2.74,59.257 L2.74,44.289 L18.382,44.289 L18.382,59.257 L18.382,59.257 Z M18.382,44.039 L2.74,44.039 L2.74,29.146 L18.382,29.146 L18.382,44.039 L18.382,44.039 Z M18.382,28.896 L2.74,28.896 L2.74,13.929 L18.382,13.929 L18.382,28.896 L18.382,28.896 Z M34.273,165.704 L18.632,165.704 L18.632,150.737 L34.273,150.737 L34.273,165.704 Z M34.273,150.487 L18.632,150.487 L18.632,135.52 L34.273,135.52 L34.273,150.487 Z M34.273,135.27 L18.632,135.27 L18.632,120.302 L34.273,120.302 L34.273,135.27 Z M34.273,120.052 L18.632,120.052 L18.632,105.159 L34.273,105.159 L34.273,120.052 Z M34.273,104.909 L18.632,104.909 L18.632,89.941 L34.273,89.941 L34.273,104.909 Z M34.273,89.691 L18.632,89.691 L18.632,74.724 L34.273,74.724 L34.273,89.691 Z M34.273,74.474 L18.632,74.474 L18.632,59.507 L34.273,59.507 L34.273,74.474 Z M34.273,59.257 L18.632,59.257 L18.632,44.289 L34.273,44.289 L34.273,59.257 Z M34.273,44.039 L18.632,44.039 L18.632,29.146 L34.273,29.146 L34.273,44.039 Z M34.273,28.896 L18.632,28.896 L18.632,13.929 L34.273,13.929 L34.273,28.896 Z M50.166,165.704 L34.523,165.704 L34.523,150.737 L50.165,150.737 L50.165,165.704 L50.166,165.704 Z M50.166,150.487 L34.523,150.487 L34.523,135.52 L50.165,135.52 L50.165,150.487 L50.166,150.487 Z M50.166,135.27 L34.523,135.27 L34.523,120.302 L50.165,120.302 L50.165,135.27 L50.166,135.27 Z M50.166,120.052 L34.523,120.052 L34.523,105.159 L50.165,105.159 L50.165,120.052 L50.166,120.052 Z M50.166,104.909 L34.523,104.909 L34.523,89.941 L50.165,89.941 L50.165,104.909 L50.166,104.909 Z M50.166,89.691 L34.523,89.691 L34.523,74.724 L50.165,74.724 L50.165,89.691 L50.166,89.691 Z M50.166,74.474 L34.523,74.474 L34.523,59.507 L50.165,59.507 L50.165,74.474 L50.166,74.474 Z M50.166,59.257 L34.523,59.257 L34.523,44.289 L50.165,44.289 L50.165,59.257 L50.166,59.257 Z M50.166,44.039 L34.523,44.039 L34.523,29.146 L50.165,29.146 L50.165,44.039 L50.166,44.039 Z M50.166,28.896 L34.523,28.896 L34.523,13.929 L50.165,13.929 L50.165,28.896 L50.166,28.896 Z M66.057,180.922 L50.416,180.922 L50.416,165.954 L66.058,165.954 L66.058,180.922 L66.057,180.922 Z M66.057,165.704 L50.416,165.704 L50.416,150.737 L66.058,150.737 L66.058,165.704 L66.057,165.704 Z M66.057,150.487 L50.416,150.487 L50.416,135.52 L66.058,135.52 L66.058,150.487 L66.057,150.487 Z M66.057,135.27 L50.416,135.27 L50.416,120.302 L66.058,120.302 L66.058,135.27 L66.057,135.27 Z M66.057,120.052 L50.416,120.052 L50.416,105.159 L66.058,105.159 L66.058,120.052 L66.057,120.052 Z M66.057,104.909 L50.416,104.909 L50.416,89.941 L66.058,89.941 L66.058,104.909 L66.057,104.909 Z M66.057,89.691 L50.416,89.691 L50.416,74.724 L66.058,74.724 L66.058,89.691 L66.057,89.691 Z M66.057,74.474 L50.416,74.474 L50.416,59.507 L66.058,59.507 L66.058,74.474 L66.057,74.474 Z M66.057,59.257 L50.416,59.257 L50.416,44.289 L66.058,44.289 L66.058,59.257 L66.057,59.257 Z M66.057,44.039 L50.416,44.039 L50.416,29.146 L66.058,29.146 L66.058,44.039 L66.057,44.039 Z M66.057,28.896 L50.416,28.896 L50.416,13.929 L66.058,13.929 L66.058,28.896 L66.057,28.896 Z M82.12,196.065 L66.307,196.065 L66.307,181.171 L82.12,181.171 L82.12,196.065 Z M82.12,180.922 L66.307,180.922 L66.307,165.954 L82.12,165.954 L82.12,180.922 Z M82.12,165.704 L66.307,165.704 L66.307,150.737 L82.12,150.737 L82.12,165.704 Z M82.12,150.487 L66.307,150.487 L66.307,135.52 L82.12,135.52 L82.12,150.487 Z M82.12,135.27 L66.307,135.27 L66.307,120.302 L82.12,120.302 L82.12,135.27 Z M82.12,120.052 L66.307,120.052 L66.307,105.159 L82.12,105.159 L82.12,120.052 Z M82.12,104.909 L66.307,104.909 L66.307,89.941 L82.12,89.941 L82.12,104.909 Z M82.12,89.691 L66.307,89.691 L66.307,74.724 L82.12,74.724 L82.12,89.691 Z M82.12,74.474 L66.307,74.474 L66.307,59.507 L82.12,59.507 L82.12,74.474 Z M82.12,59.257 L66.307,59.257 L66.307,44.289 L82.12,44.289 L82.12,59.257 Z M82.12,44.039 L66.307,44.039 L66.307,29.146 L82.12,29.146 L82.12,44.039 Z M82.12,28.896 L66.307,28.896 L66.307,13.929 L82.12,13.929 L82.12,28.896 Z M98.011,196.065 L82.37,196.065 L82.37,181.171 L98.012,181.171 L98.012,196.065 L98.011,196.065 Z M98.011,180.922 L82.37,180.922 L82.37,165.954 L98.012,165.954 L98.012,180.922 L98.011,180.922 Z M98.011,165.704 L82.37,165.704 L82.37,150.737 L98.012,150.737 L98.012,165.704 L98.011,165.704 Z M98.011,150.487 L82.37,150.487 L82.37,135.52 L98.012,135.52 L98.012,150.487 L98.011,150.487 Z M98.011,135.27 L82.37,135.27 L82.37,120.302 L98.012,120.302 L98.012,135.27 L98.011,135.27 Z M98.011,120.052 L82.37,120.052 L82.37,105.159 L98.012,105.159 L98.012,120.052 L98.011,120.052 Z M98.011,104.909 L82.37,104.909 L82.37,89.941 L98.012,89.941 L98.012,104.909 L98.011,104.909 Z M98.011,89.691 L82.37,89.691 L82.37,74.724 L98.012,74.724 L98.012,89.691 L98.011,89.691 Z M98.011,74.474 L82.37,74.474 L82.37,59.507 L98.012,59.507 L98.012,74.474 L98.011,74.474 Z M98.011,59.257 L82.37,59.257 L82.37,44.289 L98.012,44.289 L98.012,59.257 L98.011,59.257 Z M98.011,44.039 L82.37,44.039 L82.37,29.146 L98.012,29.146 L98.012,44.039 L98.011,44.039 Z M98.011,28.896 L82.37,28.896 L82.37,13.929 L98.012,13.929 L98.012,28.896 L98.011,28.896 Z M113.903,165.704 L98.261,165.704 L98.261,150.737 L113.903,150.737 L113.903,165.704 L113.903,165.704 Z M113.903,150.487 L98.261,150.487 L98.261,135.52 L113.903,135.52 L113.903,150.487 L113.903,150.487 Z M113.903,135.27 L98.261,135.27 L98.261,120.302 L113.903,120.302 L113.903,135.27 L113.903,135.27 Z M113.903,120.052 L98.261,120.052 L98.261,105.159 L113.903,105.159 L113.903,120.052 L113.903,120.052 Z M113.903,104.909 L98.261,104.909 L98.261,89.941 L113.903,89.941 L113.903,104.909 L113.903,104.909 Z M113.903,89.691 L98.261,89.691 L98.261,74.724 L113.903,74.724 L113.903,89.691 L113.903,89.691 Z M113.903,74.474 L98.261,74.474 L98.261,59.507 L113.903,59.507 L113.903,74.474 L113.903,74.474 Z M113.903,59.257 L98.261,59.257 L98.261,44.289 L113.903,44.289 L113.903,59.257 L113.903,59.257 Z M113.903,44.039 L98.261,44.039 L98.261,29.146 L113.903,29.146 L113.903,44.039 L113.903,44.039 Z M113.903,28.896 L98.261,28.896 L98.261,13.929 L113.903,13.929 L113.903,28.896 L113.903,28.896 Z M129.795,150.487 L114.153,150.487 L114.153,135.52 L129.795,135.52 L129.795,150.487 Z M129.795,135.27 L114.153,135.27 L114.153,120.302 L129.795,120.302 L129.795,135.27 Z M129.795,120.052 L114.153,120.052 L114.153,105.159 L129.795,105.159 L129.795,120.052 Z M129.795,104.909 L114.153,104.909 L114.153,89.941 L129.795,89.941 L129.795,104.909 Z M129.795,89.691 L114.153,89.691 L114.153,74.724 L129.795,74.724 L129.795,89.691 Z M129.795,74.474 L114.153,74.474 L114.153,59.507 L129.795,59.507 L129.795,74.474 Z M129.795,59.257 L114.153,59.257 L114.153,44.289 L129.795,44.289 L129.795,59.257 Z M129.795,44.039 L114.153,44.039 L114.153,29.146 L129.795,29.146 L129.795,44.039 Z M129.795,28.896 L114.153,28.896 L114.153,13.929 L129.795,13.929 L129.795,28.896 Z M145.686,135.27 L130.045,135.27 L130.045,120.302 L145.686,120.302 L145.686,135.27 Z M145.686,120.052 L130.045,120.052 L130.045,105.159 L145.686,105.159 L145.686,120.052 Z M145.686,104.909 L130.045,104.909 L130.045,89.941 L145.686,89.941 L145.686,104.909 Z M145.686,89.691 L130.045,89.691 L130.045,74.724 L145.686,74.724 L145.686,89.691 Z M145.686,74.474 L130.045,74.474 L130.045,59.507 L145.686,59.507 L145.686,74.474 Z M145.686,59.257 L130.045,59.257 L130.045,44.289 L145.686,44.289 L145.686,59.257 Z M145.686,44.039 L130.045,44.039 L130.045,29.146 L145.686,29.146 L145.686,44.039 Z M145.686,28.896 L130.045,28.896 L130.045,13.929 L145.686,13.929 L145.686,28.896 Z M161.578,135.27 L145.935,135.27 L145.935,120.302 L161.578,120.302 L161.578,135.27 Z M161.578,120.052 L145.935,120.052 L145.935,105.159 L161.578,105.159 L161.578,120.052 Z M161.578,104.909 L145.935,104.909 L145.935,89.941 L161.578,89.941 L161.578,104.909 Z M161.578,89.691 L145.935,89.691 L145.935,74.724 L161.578,74.724 L161.578,89.691 Z M161.578,74.474 L145.935,74.474 L145.935,59.507 L161.578,59.507 L161.578,74.474 Z M161.578,59.257 L145.935,59.257 L145.935,44.289 L161.578,44.289 L161.578,59.257 Z M161.578,44.039 L145.935,44.039 L145.935,29.146 L161.578,29.146 L161.578,44.039 Z M161.578,28.896 L145.935,28.896 L145.935,13.929 L161.578,13.929 L161.578,28.896 Z M177.47,120.052 L161.828,120.052 L161.828,105.159 L177.47,105.159 L177.47,120.052 Z M177.47,104.909 L161.828,104.909 L161.828,89.941 L177.47,89.941 L177.47,104.909 Z M177.47,89.691 L161.828,89.691 L161.828,74.724 L177.47,74.724 L177.47,89.691 Z M177.47,74.474 L161.828,74.474 L161.828,59.507 L177.47,59.507 L177.47,74.474 Z M177.47,59.257 L161.828,59.257 L161.828,44.289 L177.47,44.289 L177.47,59.257 Z M177.47,44.039 L161.828,44.039 L161.828,29.146 L177.47,29.146 L177.47,44.039 Z M177.47,28.896 L161.828,28.896 L161.828,13.929 L177.47,13.929 L177.47,28.896 Z M193.361,104.909 L177.72,104.909 L177.72,89.941 L193.362,89.941 L193.362,104.909 L193.361,104.909 Z M193.361,89.691 L177.72,89.691 L177.72,74.724 L193.362,74.724 L193.362,89.691 L193.361,89.691 Z M193.361,74.474 L177.72,74.474 L177.72,59.507 L193.362,59.507 L193.362,74.474 L193.361,74.474 Z M193.361,59.257 L177.72,59.257 L177.72,44.289 L193.362,44.289 L193.362,59.257 L193.361,59.257 Z M193.361,44.039 L177.72,44.039 L177.72,29.146 L193.362,29.146 L193.362,44.039 L193.361,44.039 Z M193.361,28.896 L177.72,28.896 L177.72,13.929 L193.362,13.929 L193.362,28.896 L193.361,28.896 Z M209.254,120.052 L193.611,120.052 L193.611,105.159 L209.254,105.159 L209.254,120.052 Z M209.254,104.909 L193.611,104.909 L193.611,89.941 L209.254,89.941 L209.254,104.909 Z M209.254,89.691 L193.611,89.691 L193.611,74.724 L209.254,74.724 L209.254,89.691 Z M209.254,74.474 L193.611,74.474 L193.611,59.507 L209.254,59.507 L209.254,74.474 Z M209.254,59.257 L193.611,59.257 L193.611,44.289 L209.254,44.289 L209.254,59.257 Z M209.254,44.039 L193.611,44.039 L193.611,29.146 L209.254,29.146 L209.254,44.039 Z M209.254,28.896 L193.611,28.896 L193.611,13.929 L209.254,13.929 L209.254,28.896 Z M225.146,89.691 L209.504,89.691 L209.504,74.724 L225.146,74.724 L225.146,89.691 Z M225.146,74.474 L209.504,74.474 L209.504,59.507 L225.146,59.507 L225.146,74.474 Z M225.146,59.257 L209.504,59.257 L209.504,44.289 L225.146,44.289 L225.146,59.257 Z M225.146,44.039 L209.504,44.039 L209.504,29.146 L225.146,29.146 L225.146,44.039 Z M225.146,28.896 L209.504,28.896 L209.504,13.929 L225.146,13.929 L225.146,28.896 Z M241.037,74.474 L225.395,74.474 L225.395,59.507 L241.037,59.507 L241.037,74.474 Z M241.037,59.257 L225.395,59.257 L225.395,44.289 L241.037,44.289 L241.037,59.257 Z M241.037,44.039 L225.395,44.039 L225.395,29.146 L241.037,29.146 L241.037,44.039 Z M241.037,28.896 L225.395,28.896 L225.395,13.929 L241.037,13.929 L241.037,28.896 Z M257.1,59.257 L241.288,59.257 L241.288,44.289 L257.1,44.289 L257.1,59.257 Z M257.1,44.039 L241.288,44.039 L241.288,29.146 L257.1,29.146 L257.1,44.039 Z M257.1,28.896 L241.288,28.896 L241.288,13.929 L257.1,13.929 L257.1,28.896 Z M272.992,59.257 L257.35,59.257 L257.35,44.289 L272.993,44.289 L272.993,59.257 L272.992,59.257 Z M272.992,44.039 L257.35,44.039 L257.35,29.146 L272.993,29.146 L272.993,44.039 L272.992,44.039 Z M272.992,28.896 L257.35,28.896 L257.35,13.929 L272.993,13.929 L272.993,28.896 L272.992,28.896 Z M204.471,135.52 L206.922,135.52 C206.94,135.437 206.955,135.353 206.973,135.27 L204.19,135.27 C204.281,135.353 204.377,135.437 204.471,135.52 Z" id="Shape" fill="#000000" fill-rule="nonzero" opacity="0.4"></path>
        </g>
    </g>
</svg>