<svg viewBox="-1 0 512 512" xmlns="http://www.w3.org/2000/svg"><path d="m358.199219 213.917969c-80.238281 0-145.285157 65.046875-145.285157 145.285156 0 24.132813 5.894532 46.890625 16.308594 66.921875l-26.328125 69.34375 72.878907-16.625c23.421874 16.167969 51.8125 25.640625 82.425781 25.640625 80.238281 0 145.285156-65.046875 145.285156-145.28125 0-80.238281-65.046875-145.285156-145.285156-145.285156zm0 0" fill="#ff668b"/><path d="m358.199219 318.121094c44.878906 0 85.628906-17.984375 115.449219-47.113282-26.550782-34.703124-68.382813-57.089843-115.449219-57.089843-14.097657 0-27.722657 2.027343-40.609375 5.773437 0-.003906-.003906-.007812-.003906-.011718-.242188.070312-.480469.144531-.722657.21875-.246093.070312-.5.132812-.746093.207031l-.003907.015625c-59.710937 18.046875-103.199219 73.480468-103.199219 139.082031 0 9.148437.851563 18.101563 2.472657 26.785156 2.550781-1.042969 5.082031-2.140625 7.578125-3.3125l84.296875 36.949219-16.734375-95.1875c3.605468-5.414062 6.859375-11.007812 9.777344-16.742188 18.230468 6.808594 37.789062 10.425782 57.894531 10.425782zm0 0" fill="#f7487a"/><path d="m363.210938 384.25c-19.371094 0-35.070313 15.699219-35.070313 35.070312v30.058594h70.136719v-30.058594c0-19.371093-15.699219-35.070312-35.066406-35.070312zm0 0" fill="#77959e"/><path d="m269.347656 319.707031c18.046875-24.210937 28.734375-54.234375 28.734375-86.753906 0-80.234375-65.046875-145.28125-145.285156-145.28125-80.234375 0-145.28125 65.046875-145.28125 145.28125 0 80.238281 65.046875 145.285156 145.28125 145.285156 25.203125 0 48.902344-6.417969 69.5625-17.707031l58.691406 25.722656zm0 0" fill="#ffcb5a"/><path d="m202.757812 96.488281c-6.390624 17.582031-9.882812 36.546875-9.882812 56.308594 0 6.191406.351562 12.417969 1.046875 18.597656l-56.601563 75.035157 88.371094 5.234374c15.128906 20.285157 34.417969 36.519532 56.261719 47.871094 10.304687-19.945312 16.128906-42.582031 16.128906-66.582031 0-62.683594-39.699219-116.09375-95.324219-136.464844zm0 0" fill="#fba61f"/><path d="m358.199219 7.515625c-80.238281 0-145.285157 65.046875-145.285157 145.28125 0 8.195313.691407 16.226563 1.996094 24.054687l-39.066406 51.785157 60.703125 3.59375c25.941406 39.652343 70.734375 65.851562 121.652344 65.851562 80.238281 0 145.285156-65.046875 145.285156-145.285156 0-80.234375-65.046875-145.28125-145.285156-145.28125zm0 0" fill="#00ddc2"/><path d="m376.574219 139.976562h-39.546875c-23.277344 8.292969-39.945313 30.78125-39.945313 56.90625v24.046876h120.234375v-24.046876c0-26.417968-17.050781-48.839843-40.742187-56.90625zm0 0" fill="#77959e"/><path d="m394.6875 149.90625c-5.363281-4.285156-11.476562-7.671875-18.113281-9.929688h-39.546875c-6.375 2.273438-12.253906 5.617188-17.433594 9.800782 9.1875 10.441406 22.636719 17.046875 37.605469 17.046875 14.90625 0 28.304687-6.550781 37.488281-16.917969zm0 0" fill="#62808c"/><path d="m357.199219 146.785156c-16.601563 0-30.058594-13.457031-30.058594-30.058594v-15.027343c0-16.601563 13.457031-30.058594 30.058594-30.058594 16.601562 0 30.058593 13.457031 30.058593 30.058594v15.027343c0 16.601563-13.457031 30.058594-30.058593 30.058594zm0 0" fill="#ecce93"/><path d="m363.210938 384.25c-13.835938 0-25.050782-11.214844-25.050782-25.046875v-10.019531c0-13.835938 11.214844-25.050782 25.050782-25.050782 13.832031 0 25.046874 11.214844 25.046874 25.050782v10.019531c0 13.832031-11.214843 25.046875-25.046874 25.046875zm0 0" fill="#ecce93"/><path d="m112.71875 237.964844c-19.367188 0-35.066406 15.699218-35.066406 35.070312v30.058594h70.136718v-30.058594c0-19.371094-15.699218-35.070312-35.070312-35.070312zm0 0" fill="#77959e"/><path d="m112.71875 237.964844c-13.832031 0-25.046875-11.214844-25.046875-25.050782v-10.019531c0-13.832031 11.214844-25.046875 25.046875-25.046875 13.835938 0 25.050781 11.214844 25.050781 25.046875v10.019531c0 13.835938-11.214843 25.050782-25.050781 25.050782zm0 0" fill="#ecce93"/><path d="m112.71875 237.964844c-10.375 0-19.691406 4.507812-26.113281 11.671875 7.375 5.257812 16.382812 8.367187 26.113281 8.367187s18.742188-3.109375 26.117188-8.367187c-6.421876-7.164063-15.742188-11.671875-26.117188-11.671875zm0 0" fill="#62808c"/><path d="m363.210938 384.25c-10.375 0-19.695313 4.507812-26.117188 11.671875 7.375 5.257813 16.386719 8.367187 26.117188 8.367187 9.726562 0 18.738281-3.109374 26.113281-8.367187-6.421875-7.164063-15.738281-11.671875-26.113281-11.671875zm0 0" fill="#62808c"/><path d="m510.996094 152.796875c0-84.253906-68.542969-152.796875-152.796875-152.796875-63.542969 0-118.140625 38.992188-141.148438 94.300781-20.011719-9.269531-42.050781-14.144531-64.253906-14.144531-84.253906 0-152.796875 68.546875-152.796875 152.796875 0 84.253906 68.542969 152.800781 152.796875 152.800781 18.511719 0 36.46875-3.253906 53.535156-9.65625 1.925781 17.609375 6.839844 34.53125 14.691407 50.457032l-30.132813 79.359374 83.375-19.019531c24.960937 16.4375 53.90625 25.105469 83.933594 25.105469 84.253906 0 152.796875-68.542969 152.796875-152.796875 0-38.628906-14.210938-75.011719-40.171875-103.257813 24.933593-27.199218 40.171875-63.425781 40.171875-103.148437zm-288.675782 22.816406c-1.253906-7.527343-1.890624-15.203125-1.890624-22.816406 0-75.964844 61.804687-137.765625 137.769531-137.765625 75.964843 0 137.769531 61.800781 137.769531 137.765625 0 75.96875-61.804688 137.769531-137.769531 137.769531-46.652344 0-89.78125-23.34375-115.363281-62.449218l-2.070313-3.164063-50.476563-2.988281 32.5625-43.164063zm-12.40625 182.742188c-17.972656 8.207031-37.1875 12.367187-57.117187 12.367187-75.964844 0-137.765625-61.800781-137.765625-137.769531 0-75.964844 61.800781-137.765625 137.765625-137.765625 20.480469 0 40.796875 4.601562 59.15625 13.328125-4.253906 14.023437-6.550781 28.890625-6.550781 44.28125 0 7.351563.535156 14.761719 1.59375 22.066406l-45.597656 60.445313 70.988281 4.203125c12.84375 18.617187 29.355469 33.828125 48.214843 44.953125-4.410156 10.921875-10.195312 21.246094-17.28125 30.746094l-1.9375 2.601562 9.835938 55.929688-49.234375-21.574219-3.242187 1.777343c-2.804688 1.535157-5.773438 3.019532-8.828126 4.410157zm286.054688.847656c0 75.964844-61.804688 137.765625-137.769531 137.765625-28.082031 0-55.109375-8.40625-78.164063-24.308594l-2.71875-1.875-62.414062 14.234375 22.546875-59.378906-1.554688-2.988281c-8.605469-16.53125-13.652343-34.292969-15.054687-52.863282.609375-.304687 1.226562-.605468 1.828125-.914062l68.210937 29.890625-13.578125-77.214844c6.695313-9.390625 12.261719-19.472656 16.664063-30.074219 19.804687 9.171876 41.644531 14.121094 64.234375 14.121094 39.132812 0 74.871093-14.792968 101.933593-39.074218 23.160157 25.40625 35.835938 58.042968 35.835938 92.679687zm0 0"/><path d="m317.621094 192.875h15.027344v28.054688h-15.027344zm0 0"/><path d="m304.59375 196.882812c0-21.316406 12.777344-40.503906 32.089844-48.699218 5.90625 3.863281 12.949218 6.117187 20.515625 6.117187 7.453125 0 14.40625-2.191406 20.253906-5.953125 19.484375 8.121094 32.347656 27.199219 32.347656 48.535156v24.046876h15.027344v-24.046876c0-25.367187-14.132813-48.253906-36.066406-59.8125 3.796875-5.867187 6.007812-12.851562 6.007812-20.34375v-15.027343c0-20.71875-16.851562-37.574219-37.570312-37.574219s-37.574219 16.855469-37.574219 37.574219v15.027343c0 7.414063 2.164062 14.324219 5.882812 20.152344-21.832031 11.621094-35.941406 34.644532-35.941406 60.003906v24.046876h15.027344zm30.058594-95.183593c0-12.433594 10.113281-22.542969 22.546875-22.542969 12.429687 0 22.542969 10.109375 22.542969 22.542969v15.027343c0 12.433594-10.113282 22.546876-22.542969 22.546876-12.433594 0-22.546875-10.113282-22.546875-22.546876zm0 0"/><path d="m381.746094 192.875h15.027344v28.054688h-15.027344zm0 0"/><path d="m134.917969 236.710938c6.371093-5.949219 10.367187-14.410157 10.367187-23.796876v-10.019531c0-17.953125-14.609375-32.5625-32.566406-32.5625-17.953125 0-32.5625 14.609375-32.5625 32.5625v10.019531c0 9.386719 3.992188 17.847657 10.367188 23.796876-12.21875 7.492187-20.386719 20.96875-20.386719 36.324218v30.058594h15.03125v-30.058594c0-15.195312 12.359375-27.554687 27.550781-27.554687 15.195312 0 27.554688 12.359375 27.554688 27.554687v30.058594h15.03125v-30.058594c0-15.355468-8.167969-28.832031-20.386719-36.324218zm-4.664063-23.796876c0 9.667969-7.867187 17.535157-17.535156 17.535157s-17.53125-7.867188-17.53125-17.535157v-10.019531c0-9.667969 7.863281-17.53125 17.53125-17.53125s17.535156 7.863281 17.535156 17.53125zm0 0"/><path d="m385.40625 382.996094c6.371094-5.949219 10.367188-14.414063 10.367188-23.792969v-10.019531c0-17.957032-14.609376-32.566406-32.5625-32.566406-17.957032 0-32.566407 14.609374-32.566407 32.566406v10.019531c0 9.378906 3.996094 17.84375 10.367188 23.792969-12.21875 7.492187-20.386719 20.96875-20.386719 36.324218v30.058594h15.03125v-30.058594c0-15.195312 12.359375-27.554687 27.554688-27.554687 15.191406 0 27.550781 12.359375 27.550781 27.554687v30.058594h15.03125v-30.058594c0-15.351562-8.167969-28.832031-20.386719-36.324218zm-4.664062-23.792969c0 9.667969-7.863282 17.53125-17.53125 17.53125-9.667969 0-17.535157-7.863281-17.535157-17.53125v-10.019531c0-9.667969 7.867188-17.535156 17.535157-17.535156 9.667968 0 17.53125 7.867187 17.53125 17.535156zm0 0"/><g fill="#fff"><path d="m45.089844 232.953125h-15.03125c0-16.808594 3.355468-33.113281 9.972656-48.453125l13.800781 5.949219c-5.800781 13.453125-8.742187 27.753906-8.742187 42.503906zm15.125-54.992187-12.910156-7.699219c2.71875-4.558594 5.769531-8.988281 9.0625-13.167969l11.804687 9.304688c-2.894531 3.671874-5.570313 7.5625-7.957031 11.5625zm17.34375-22.003907-10.503906-10.75c3.800781-3.71875 7.886718-7.222656 12.132812-10.414062l9.03125 12.015625c-3.734375 2.804687-7.320312 5.882812-10.660156 9.148437zm22.40625-16.839843-7.394532-13.085938c18.300782-10.347656 39.128907-15.816406 60.226563-15.816406v15.03125c-18.511719 0-36.78125 4.792968-52.832031 13.871094zm0 0"/><path d="m455.324219 434.175781-11.890625-9.195312c14.703125-19.007813 22.476562-41.753907 22.476562-65.777344h15.027344c0 27.386719-8.855469 53.3125-25.613281 74.972656zm0 0"/><path d="m358.199219 275.539062v-15.03125c18.636719 0 37.007812-4.855468 53.136719-14.042968l7.441406 13.058594c-18.390625 10.476562-39.339844 16.015624-60.578125 16.015624zm0 0"/><path d="m462.207031 217.914062-12.726562-7.992187c10.75-17.109375 16.429687-36.863281 16.429687-57.125h15.027344c0 23.09375-6.476562 45.609375-18.730469 65.117187zm0 0"/><path d="m450.792969 97.820312c-2.386719-4.003906-5.0625-7.898437-7.957031-11.570312l11.804687-9.300781c3.292969 4.179687 6.34375 8.613281 9.0625 13.175781zm-17.347657-22.015624c-3.339843-3.265626-6.925781-6.34375-10.660156-9.148438l9.035156-12.011719c4.246094 3.191407 8.328126 6.695313 12.128907 10.414063zm-22.40625-16.839844c-16.050781-9.078125-34.324218-13.875-52.839843-13.875v-15.03125c21.105469 0 41.933593 5.472656 60.238281 15.824218zm0 0"/><path d="m250.488281 152.796875h-15.027343c0-18.785156 4.152343-36.828125 12.34375-53.628906l13.507812 6.589843c-7.179688 14.730469-10.824219 30.554688-10.824219 47.039063zm17.789063-59.230469-12.539063-8.285156c2.929688-4.433594 6.183594-8.722656 9.667969-12.742188l11.359375 9.839844c-3.058594 3.53125-5.914063 7.296875-8.488281 11.1875zm0 0"/></g></svg>